<?xml version="1.0" encoding="UTF-8" standalone="no"?>
<!DOCTYPE svg PUBLIC "-//W3C//DTD SVG 1.1//EN" "http://www.w3.org/Graphics/SVG/1.1/DTD/svg11.dtd">
<svg width="100%" height="100%" viewBox="0 0 1280 800" version="1.1" xmlns="http://www.w3.org/2000/svg" xmlns:xlink="http://www.w3.org/1999/xlink" xml:space="preserve" xmlns:serif="http://www.serif.com/" style="fill-rule:evenodd;clip-rule:evenodd;stroke-linecap:round;stroke-linejoin:round;stroke-miterlimit:1.5;">
    <g transform="matrix(-2.23212,0,0,3.1535,1901.52,-773.467)">
        <rect x="278.445" y="245.273" width="573.445" height="253.687" style="fill:rgb(242,203,155);"/>
    </g>
    <g transform="matrix(-0.133314,0.991074,0.991074,0.133314,-52.674,325.233)">
        <path d="M186.376,0C186.376,0 470.469,66.91 476.579,220.952C482.69,374.993 299.098,500.92 180.088,452.525C61.078,404.13 184.396,251.802 64.035,220.958C-56.327,190.114 63.051,-22.259 186.376,0Z" style="fill:white;fill-opacity:0.17;"/>
    </g>
    <g>
        <g transform="matrix(-0.114805,0.853476,0.853476,0.114805,-27.0205,362.187)">
            <path d="M186.376,0C186.376,0 470.469,66.91 476.579,220.952C482.69,374.993 299.098,500.92 180.088,452.525C61.078,404.13 184.396,251.802 64.035,220.958C-56.327,190.114 63.051,-22.259 186.376,0Z" style="fill:none;stroke:rgb(242,242,242);stroke-width:1.16px;"/>
        </g>
        <g transform="matrix(-0.170594,1.26822,1.26822,0.170594,-25.5602,356.451)">
            <path d="M186.376,0C186.376,0 470.469,66.91 476.579,220.952C482.69,374.993 299.098,500.92 180.088,452.525C61.078,404.13 184.396,251.802 64.035,220.958C-56.327,190.114 63.051,-22.259 186.376,0Z" style="fill:none;stroke:rgb(242,242,242);stroke-width:0.78px;"/>
        </g>
        <g transform="matrix(-0.0821792,0.610931,0.610931,0.0821792,8.7571,429.124)">
            <path d="M186.376,0C186.376,0 470.469,66.91 476.579,220.952C482.69,374.993 299.098,500.92 180.088,452.525C61.078,404.13 184.396,251.802 64.035,220.958C-56.327,190.114 63.051,-22.259 186.376,0Z" style="fill:none;stroke:rgb(242,242,242);stroke-width:1.62px;"/>
        </g>
        <g transform="matrix(-0.053725,0.399399,0.399399,0.053725,37.6873,487.936)">
            <path d="M186.376,0C186.376,0 470.469,66.91 476.579,220.952C482.69,374.993 299.098,500.92 180.088,452.525C61.078,404.13 184.396,251.802 64.035,220.958C-56.327,190.114 63.051,-22.259 186.376,0Z" style="fill:none;stroke:rgb(242,242,242);stroke-width:2.48px;"/>
        </g>
    </g>
</svg>
