<?xml version="1.0" encoding="UTF-8" standalone="no"?>
<!DOCTYPE svg PUBLIC "-//W3C//DTD SVG 1.1//EN" "http://www.w3.org/Graphics/SVG/1.1/DTD/svg11.dtd">
<svg width="100%" height="100%" viewBox="0 0 1280 800" version="1.1" xmlns="http://www.w3.org/2000/svg" xmlns:xlink="http://www.w3.org/1999/xlink" xml:space="preserve" xmlns:serif="http://www.serif.com/" style="fill-rule:evenodd;clip-rule:evenodd;stroke-linecap:round;stroke-linejoin:round;stroke-miterlimit:1.5;">
    <g transform="matrix(2.23212,0,0,3.1535,-621.524,-773.467)">
        <rect x="278.445" y="245.273" width="573.445" height="253.687" style="fill:rgb(128,173,191);"/>
    </g>
    <g transform="matrix(1,0,0,1,-117.97,-26.7366)">
        <g transform="matrix(0.816916,-0.272489,0.272489,0.816916,-16.4977,79.1584)">
            <path d="M186.376,0C186.376,0 470.469,66.91 476.579,220.952C482.69,374.993 299.098,500.92 180.088,452.525C61.078,404.13 184.396,251.802 64.035,220.958C-56.327,190.114 63.051,-22.259 186.376,0Z" style="fill:none;stroke:white;stroke-opacity:0.17;stroke-width:1.16px;"/>
        </g>
        <g transform="matrix(0.584761,-0.195052,0.195052,0.584761,55.9521,101.778)">
            <path d="M186.376,0C186.376,0 470.469,66.91 476.579,220.952C482.69,374.993 299.098,500.92 180.088,452.525C61.078,404.13 184.396,251.802 64.035,220.958C-56.327,190.114 63.051,-22.259 186.376,0Z" style="fill:none;stroke:white;stroke-opacity:0.17;stroke-width:1.62px;"/>
        </g>
        <g transform="matrix(0.38229,-0.127516,0.127516,0.38229,119.138,119.192)">
            <path d="M186.376,0C186.376,0 470.469,66.91 476.579,220.952C482.69,374.993 299.098,500.92 180.088,452.525C61.078,404.13 184.396,251.802 64.035,220.958C-56.327,190.114 63.051,-22.259 186.376,0Z" style="fill:none;stroke:white;stroke-opacity:0.17;stroke-width:2.48px;"/>
        </g>
    </g>
    <g transform="matrix(0.19099,1.41985,-1.41985,0.19099,1349.02,-65.3188)">
        <path d="M186.376,0C186.376,0 470.469,66.91 476.579,220.952C482.69,374.993 299.098,500.92 180.088,452.525C61.078,404.13 184.396,251.802 64.035,220.958C-56.327,190.114 63.051,-22.259 186.376,0Z" style="fill:white;fill-opacity:0.17;"/>
    </g>
    <g transform="matrix(1.17059,0,0,1.17059,-244.118,-229.584)">
        <g transform="matrix(0.174051,1.29392,-1.29392,0.174051,1328.69,182.103)">
            <path d="M186.376,0C186.376,0 470.469,66.91 476.579,220.952C482.69,374.993 299.098,500.92 180.088,452.525C61.078,404.13 184.396,251.802 64.035,220.958C-56.327,190.114 63.051,-22.259 186.376,0Z" style="fill:none;stroke:white;stroke-opacity:0.17;stroke-width:0.65px;"/>
        </g>
        <g transform="matrix(0.100575,0.74769,-0.74769,0.100575,1285.78,267.473)">
            <path d="M186.376,0C186.376,0 470.469,66.91 476.579,220.952C482.69,374.993 299.098,500.92 180.088,452.525C61.078,404.13 184.396,251.802 64.035,220.958C-56.327,190.114 63.051,-22.259 186.376,0Z" style="fill:none;stroke:white;stroke-opacity:0.17;stroke-width:1.13px;"/>
        </g>
        <g transform="matrix(0.0657515,0.488806,-0.488806,0.0657515,1250.37,339.45)">
            <path d="M186.376,0C186.376,0 470.469,66.91 476.579,220.952C482.69,374.993 299.098,500.92 180.088,452.525C61.078,404.13 184.396,251.802 64.035,220.958C-56.327,190.114 63.051,-22.259 186.376,0Z" style="fill:none;stroke:white;stroke-opacity:0.17;stroke-width:1.73px;"/>
        </g>
    </g>
</svg>
