<?xml version="1.0" encoding="UTF-8" standalone="no"?>
<!DOCTYPE svg PUBLIC "-//W3C//DTD SVG 1.1//EN" "http://www.w3.org/Graphics/SVG/1.1/DTD/svg11.dtd">
<svg width="100%" height="100%" viewBox="0 0 100 100" version="1.1" xmlns="http://www.w3.org/2000/svg" xmlns:xlink="http://www.w3.org/1999/xlink" xml:space="preserve" xmlns:serif="http://www.serif.com/" style="fill-rule:evenodd;clip-rule:evenodd;stroke-linejoin:round;stroke-miterlimit:2;">
    <circle cx="50" cy="50" r="48" style="fill:rgb(128,173,191);"/>
    <g transform="matrix(0.5,0,0,0.5,25,25)">
        <path d="M50,1C22.938,1 1,22.938 1,50C1,77.062 22.938,99 50,99C77.062,99 99,77.062 99,50C99,22.938 77.062,1 50,1ZM79.099,79.099C75.317,82.881 70.915,85.849 66.016,87.922C64.771,88.448 63.507,88.911 62.226,89.309L62.226,81.965C62.226,78.105 60.902,75.266 58.254,73.448C59.913,73.288 61.436,73.065 62.824,72.778C64.212,72.491 65.679,72.076 67.226,71.533C68.773,70.99 70.161,70.344 71.389,69.595C72.617,68.845 73.798,67.872 74.93,66.676C76.062,65.48 77.012,64.124 77.777,62.609C78.542,61.094 79.149,59.275 79.595,57.154C80.041,55.033 80.265,52.696 80.265,50.144C80.265,45.199 78.654,40.989 75.432,37.511C76.899,33.683 76.74,29.52 74.954,25.022L73.757,24.879C72.928,24.783 71.436,25.134 69.283,25.932C67.13,26.73 64.713,28.037 62.034,29.856C58.237,28.803 54.298,28.277 50.214,28.277C46.099,28.277 42.175,28.803 38.442,29.856C36.752,28.707 35.148,27.759 33.633,27.009C32.118,26.259 30.906,25.749 29.996,25.477C29.087,25.206 28.242,25.038 27.46,24.974C26.678,24.91 26.176,24.895 25.953,24.926C25.73,24.957 25.57,24.99 25.475,25.022C23.688,29.552 23.529,33.716 24.997,37.511C21.775,40.988 20.164,45.199 20.164,50.144C20.164,52.696 20.387,55.033 20.834,57.154C21.281,59.275 21.887,61.094 22.652,62.609C23.417,64.124 24.367,65.48 25.499,66.676C26.631,67.872 27.812,68.845 29.04,69.595C30.268,70.346 31.656,70.991 33.203,71.533C34.75,72.076 36.217,72.49 37.605,72.778C38.993,73.065 40.516,73.289 42.175,73.448C39.559,75.235 38.251,78.074 38.251,81.965L38.251,89.452C36.806,89.022 35.382,88.514 33.983,87.922C29.084,85.849 24.682,82.881 20.9,79.099C17.118,75.317 14.15,70.915 12.077,66.016C9.934,60.948 8.847,55.56 8.847,50C8.847,44.44 9.934,39.052 12.078,33.984C14.151,29.085 17.119,24.683 20.901,20.901C24.683,17.119 29.085,14.151 33.984,12.078C39.052,9.934 44.44,8.847 50,8.847C55.56,8.847 60.948,9.934 66.016,12.078C70.916,14.151 75.317,17.119 79.099,20.901C82.881,24.683 85.849,29.085 87.922,33.984C90.065,39.053 91.152,44.441 91.152,50C91.152,55.559 90.065,60.948 87.921,66.016C85.848,70.915 82.88,75.317 79.099,79.099Z" style="fill:rgb(247,247,247);fill-rule:nonzero;"/>
    </g>
</svg>
